<svg width="206" height="229" viewBox="0 0 206 229" fill="none" xmlns="http://www.w3.org/2000/svg">
<circle cx="102.5" cy="114.5" r="72.5" fill="#D9D9D9"/>
<path d="M112.999 61H120.34L127.681 64.9532L133.328 70.6006L137.281 77.3775L140.104 87.5429V104.485L138.41 115.78L137.281 125.945L133.328 143.452L129.375 155.312L125.987 163.218L122.034 167.736L120.905 168.301H114.128L108.481 166.042L103.399 161.524L100.011 155.312L99.4464 153.618L98.8817 137.805L98.317 135.546L97.1876 136.111L92.1053 147.97L88.1525 156.441L83.6349 166.042L80.2468 168.301H76.8586L71.7763 164.913L68.9529 162.654L66.1294 158.7L65 155.312V147.406L68.3882 123.686L71.2116 101.097L71.7763 95.4493L72.9057 89.8019L74.0351 79.0718L76.2939 64.9532L77.988 62.1295L81.9408 61.5647L86.4584 63.8237L90.4113 67.2122L93.7994 73.9891V81.8955L90.9759 93.7551L85.8937 117.474L83.0702 129.899V133.852L84.7643 132.158L88.1525 124.251L92.67 115.215L97.1876 106.744L98.8817 105.05L103.964 105.615L106.787 108.438L109.046 112.956L111.305 120.298L112.999 128.769L114.128 138.934V141.758H115.823L116.952 138.934L120.34 128.204L123.164 112.956L123.728 109.003V92.0608L121.469 89.2371L114.128 86.9782L110.176 85.8487L108.481 83.025L107.352 79.6365V69.4711L109.046 64.3885L112.999 61Z" fill="#E62D25"/>
</svg>
